<svg width="161" height="162" viewBox="0 0 161 162" fill="none" xmlns="http://www.w3.org/2000/svg">
<rect width="161" height="162" rx="16" fill="#DBDBDB"/>
<path d="M86.3307 72.3337H88.9974C91.9429 72.3337 94.3307 69.9458 94.3307 67.0003V67.0003C94.3307 64.0548 91.9429 61.667 88.9974 61.667V61.667C88.9974 57.2487 85.4157 53.667 80.9974 53.667V53.667C77.5736 53.6687 74.5307 55.8495 73.4291 59.0912C70.1329 59.5322 67.67 62.3415 67.6641 65.667V65.667C67.6641 69.3489 70.6488 72.3337 74.3307 72.3337H75.6641" stroke="#323232" stroke-width="1.5" stroke-linecap="round" stroke-linejoin="round"/>
<path d="M83.6693 68.3337L81.0026 65.667L78.3359 68.3337" stroke="#323232" stroke-width="1.5" stroke-linecap="round" stroke-linejoin="round"/>
<path d="M81.0026 72.3337V65.667" stroke="#323232" stroke-width="1.5" stroke-linecap="round" stroke-linejoin="round"/>
<path d="M23 111H19.4091V99.3636H23.1591C24.2879 99.3636 25.2538 99.5966 26.0568 100.062C26.8598 100.525 27.4754 101.189 27.9034 102.057C28.3314 102.92 28.5455 103.955 28.5455 105.159C28.5455 106.371 28.3295 107.415 27.8977 108.29C27.4659 109.161 26.8371 109.831 26.0114 110.301C25.1856 110.767 24.1818 111 23 111ZM20.8182 109.75H22.9091C23.8712 109.75 24.6686 109.564 25.3011 109.193C25.9337 108.822 26.4053 108.294 26.7159 107.608C27.0265 106.922 27.1818 106.106 27.1818 105.159C27.1818 104.22 27.0284 103.411 26.7216 102.733C26.4148 102.051 25.9564 101.528 25.3466 101.165C24.7367 100.797 23.9773 100.614 23.0682 100.614H20.8182V109.75ZM30.7273 111V102.273H32.0227V103.591H32.1136C32.2727 103.159 32.5606 102.809 32.9773 102.54C33.3939 102.271 33.8636 102.136 34.3864 102.136C34.4848 102.136 34.608 102.138 34.7557 102.142C34.9034 102.146 35.0152 102.152 35.0909 102.159V103.523C35.0455 103.511 34.9413 103.494 34.7784 103.472C34.6193 103.445 34.4508 103.432 34.2727 103.432C33.8485 103.432 33.4697 103.521 33.1364 103.699C32.8068 103.873 32.5455 104.116 32.3523 104.426C32.1629 104.733 32.0682 105.083 32.0682 105.477V111H30.7273ZM39.2486 111.205C38.6955 111.205 38.1937 111.1 37.7429 110.892C37.2921 110.68 36.9342 110.375 36.669 109.977C36.4039 109.576 36.2713 109.091 36.2713 108.523C36.2713 108.023 36.3698 107.617 36.5668 107.307C36.7637 106.992 37.027 106.746 37.3565 106.568C37.6861 106.39 38.0497 106.258 38.4474 106.17C38.849 106.08 39.2524 106.008 39.6577 105.955C40.188 105.886 40.6179 105.835 40.9474 105.801C41.2808 105.763 41.5232 105.701 41.6747 105.614C41.83 105.527 41.9077 105.375 41.9077 105.159V105.114C41.9077 104.553 41.7543 104.117 41.4474 103.807C41.1444 103.496 40.6842 103.341 40.0668 103.341C39.4266 103.341 38.9247 103.481 38.5611 103.761C38.1974 104.042 37.9418 104.341 37.794 104.659L36.5213 104.205C36.7486 103.674 37.0516 103.261 37.4304 102.966C37.813 102.667 38.2296 102.458 38.6804 102.341C39.1349 102.22 39.5819 102.159 40.0213 102.159C40.3016 102.159 40.6236 102.193 40.9872 102.261C41.3546 102.326 41.7088 102.46 42.0497 102.665C42.3944 102.869 42.6804 103.178 42.9077 103.591C43.1349 104.004 43.2486 104.557 43.2486 105.25V111H41.9077V109.818H41.8395C41.7486 110.008 41.5971 110.21 41.3849 110.426C41.1728 110.642 40.8906 110.826 40.5384 110.977C40.1861 111.129 39.7562 111.205 39.2486 111.205ZM39.4531 110C39.9834 110 40.4304 109.896 40.794 109.688C41.1615 109.479 41.438 109.21 41.6236 108.881C41.813 108.551 41.9077 108.205 41.9077 107.841V106.614C41.8509 106.682 41.7259 106.744 41.5327 106.801C41.3433 106.854 41.1236 106.902 40.8736 106.943C40.6274 106.981 40.3868 107.015 40.152 107.045C39.9209 107.072 39.7334 107.095 39.5895 107.114C39.241 107.159 38.9152 107.233 38.6122 107.335C38.313 107.434 38.0705 107.583 37.8849 107.784C37.7031 107.981 37.6122 108.25 37.6122 108.591C37.6122 109.057 37.7846 109.409 38.1293 109.648C38.4777 109.883 38.919 110 39.4531 110ZM49.2188 114.455C48.571 114.455 48.0142 114.371 47.5483 114.205C47.0824 114.042 46.6941 113.826 46.3835 113.557C46.0767 113.292 45.8324 113.008 45.6506 112.705L46.7188 111.955C46.84 112.114 46.9934 112.295 47.179 112.5C47.3646 112.708 47.6184 112.888 47.9403 113.04C48.2661 113.195 48.6922 113.273 49.2188 113.273C49.9233 113.273 50.5047 113.102 50.9631 112.761C51.4214 112.42 51.6506 111.886 51.6506 111.159V109.386H51.5369C51.4384 109.545 51.2983 109.742 51.1165 109.977C50.9384 110.208 50.6809 110.415 50.3438 110.597C50.0104 110.775 49.5597 110.864 48.9915 110.864C48.2869 110.864 47.6544 110.697 47.0938 110.364C46.5369 110.03 46.0956 109.545 45.7699 108.909C45.4479 108.273 45.2869 107.5 45.2869 106.591C45.2869 105.697 45.4441 104.919 45.7585 104.256C46.0729 103.589 46.5104 103.074 47.071 102.71C47.6316 102.343 48.2794 102.159 49.0142 102.159C49.5824 102.159 50.0331 102.254 50.3665 102.443C50.7036 102.629 50.9612 102.841 51.1392 103.08C51.321 103.314 51.4612 103.508 51.5597 103.659H51.696V102.273H52.9915V111.25C52.9915 112 52.821 112.61 52.4801 113.08C52.143 113.553 51.6884 113.9 51.1165 114.119C50.5483 114.343 49.9157 114.455 49.2188 114.455ZM49.1733 109.659C49.7112 109.659 50.1657 109.536 50.5369 109.29C50.9081 109.044 51.1903 108.689 51.3835 108.227C51.5767 107.765 51.6733 107.212 51.6733 106.568C51.6733 105.939 51.5786 105.384 51.3892 104.903C51.1998 104.422 50.9195 104.045 50.5483 103.773C50.1771 103.5 49.7188 103.364 49.1733 103.364C48.6051 103.364 48.1316 103.508 47.7528 103.795C47.3778 104.083 47.0956 104.47 46.9062 104.955C46.7206 105.439 46.6278 105.977 46.6278 106.568C46.6278 107.174 46.7225 107.71 46.9119 108.176C47.1051 108.638 47.3892 109.002 47.7642 109.267C48.143 109.528 48.6127 109.659 49.1733 109.659ZM63.2415 111.159C62.4763 111.159 61.8172 111.019 61.2642 110.739C60.7112 110.458 60.285 110.074 59.9858 109.585C59.6866 109.097 59.5369 108.538 59.5369 107.909C59.5369 107.424 59.6392 106.994 59.8438 106.619C60.0521 106.241 60.3381 105.89 60.7017 105.568C61.0691 105.242 61.4915 104.917 61.9688 104.591L63.6506 103.341C63.9801 103.125 64.2434 102.894 64.4403 102.648C64.6411 102.402 64.7415 102.08 64.7415 101.682C64.7415 101.386 64.6108 101.1 64.3494 100.824C64.0919 100.547 63.7528 100.409 63.3324 100.409C63.0369 100.409 62.7756 100.485 62.5483 100.636C62.3248 100.784 62.1487 100.973 62.0199 101.205C61.8949 101.432 61.8324 101.667 61.8324 101.909C61.8324 102.182 61.9063 102.458 62.054 102.739C62.2055 103.015 62.3968 103.299 62.6278 103.591C62.8627 103.879 63.1051 104.174 63.3551 104.477L68.696 111H67.0824L62.6733 105.682C62.2642 105.189 61.893 104.742 61.5597 104.341C61.2263 103.939 60.9612 103.544 60.7642 103.153C60.5672 102.763 60.4688 102.341 60.4688 101.886C60.4688 101.364 60.5843 100.905 60.8153 100.511C61.0502 100.114 61.3778 99.8049 61.7983 99.5852C62.2225 99.3617 62.7188 99.25 63.2869 99.25C63.8703 99.25 64.3722 99.3636 64.7926 99.5909C65.2131 99.8144 65.5369 100.112 65.7642 100.483C65.9915 100.85 66.1051 101.25 66.1051 101.682C66.1051 102.239 65.9669 102.722 65.6903 103.131C65.4138 103.54 65.0369 103.92 64.5597 104.273L62.2415 106C61.7188 106.386 61.3646 106.761 61.179 107.125C60.9934 107.489 60.9006 107.75 60.9006 107.909C60.9006 108.273 60.9953 108.612 61.1847 108.926C61.3741 109.241 61.6411 109.494 61.9858 109.688C62.3305 109.881 62.7339 109.977 63.196 109.977C63.6354 109.977 64.0634 109.884 64.4801 109.699C64.8968 109.509 65.2737 109.237 65.6108 108.881C65.9517 108.525 66.2206 108.097 66.4176 107.597C66.6184 107.097 66.7188 106.534 66.7188 105.909H68.0142C68.0142 106.682 67.9252 107.312 67.7472 107.801C67.5691 108.29 67.3684 108.672 67.1449 108.949C66.9214 109.225 66.7415 109.432 66.6051 109.568C66.5597 109.625 66.518 109.682 66.4801 109.739C66.4422 109.795 66.4006 109.852 66.3551 109.909C65.9801 110.33 65.5066 110.644 64.9347 110.852C64.3627 111.057 63.7983 111.159 63.2415 111.159ZM77.9759 111.182C77.2486 111.182 76.6065 110.998 76.0497 110.631C75.4929 110.259 75.0573 109.737 74.7429 109.062C74.4285 108.384 74.2713 107.583 74.2713 106.659C74.2713 105.742 74.4285 104.947 74.7429 104.273C75.0573 103.598 75.4948 103.078 76.0554 102.71C76.616 102.343 77.2637 102.159 77.9986 102.159C78.5668 102.159 79.0156 102.254 79.3452 102.443C79.6785 102.629 79.9323 102.841 80.1065 103.08C80.2846 103.314 80.4228 103.508 80.5213 103.659H80.6349V99.3636H81.9759V111H80.6804V109.659H80.5213C80.4228 109.818 80.2827 110.019 80.1009 110.261C79.919 110.5 79.6596 110.714 79.3224 110.903C78.9853 111.089 78.5365 111.182 77.9759 111.182ZM78.1577 109.977C78.6955 109.977 79.1501 109.837 79.5213 109.557C79.8925 109.273 80.1747 108.881 80.3679 108.381C80.5611 107.877 80.6577 107.295 80.6577 106.636C80.6577 105.985 80.563 105.415 80.3736 104.926C80.1842 104.434 79.9039 104.051 79.5327 103.778C79.1615 103.502 78.7031 103.364 78.1577 103.364C77.5895 103.364 77.116 103.509 76.7372 103.801C76.3622 104.089 76.08 104.481 75.8906 104.977C75.705 105.47 75.6122 106.023 75.6122 106.636C75.6122 107.258 75.7069 107.822 75.8963 108.33C76.0895 108.833 76.3736 109.235 76.7486 109.534C77.1274 109.83 77.5971 109.977 78.1577 109.977ZM84.6179 111V102.273H85.9134V103.591H86.0043C86.1634 103.159 86.4512 102.809 86.8679 102.54C87.2846 102.271 87.7543 102.136 88.277 102.136C88.3755 102.136 88.4986 102.138 88.6463 102.142C88.794 102.146 88.9058 102.152 88.9815 102.159V103.523C88.9361 103.511 88.8319 103.494 88.669 103.472C88.5099 103.445 88.3414 103.432 88.1634 103.432C87.7391 103.432 87.3603 103.521 87.027 103.699C86.6974 103.873 86.4361 104.116 86.2429 104.426C86.0535 104.733 85.9588 105.083 85.9588 105.477V111H84.6179ZM93.8509 111.182C93.063 111.182 92.3717 110.994 91.777 110.619C91.1861 110.244 90.724 109.72 90.3906 109.045C90.0611 108.371 89.8963 107.583 89.8963 106.682C89.8963 105.773 90.0611 104.979 90.3906 104.301C90.724 103.623 91.1861 103.097 91.777 102.722C92.3717 102.347 93.063 102.159 93.8509 102.159C94.6387 102.159 95.3281 102.347 95.919 102.722C96.5137 103.097 96.9759 103.623 97.3054 104.301C97.6387 104.979 97.8054 105.773 97.8054 106.682C97.8054 107.583 97.6387 108.371 97.3054 109.045C96.9759 109.72 96.5137 110.244 95.919 110.619C95.3281 110.994 94.6387 111.182 93.8509 111.182ZM93.8509 109.977C94.4493 109.977 94.9418 109.824 95.3281 109.517C95.7145 109.21 96.0005 108.807 96.1861 108.307C96.3717 107.807 96.4645 107.265 96.4645 106.682C96.4645 106.098 96.3717 105.555 96.1861 105.051C96.0005 104.547 95.7145 104.14 95.3281 103.83C94.9418 103.519 94.4493 103.364 93.8509 103.364C93.2524 103.364 92.7599 103.519 92.3736 103.83C91.9872 104.14 91.7012 104.547 91.5156 105.051C91.33 105.555 91.2372 106.098 91.2372 106.682C91.2372 107.265 91.33 107.807 91.5156 108.307C91.7012 108.807 91.9872 109.21 92.3736 109.517C92.7599 109.824 93.2524 109.977 93.8509 109.977ZM99.8523 114.273V102.273H101.148V103.659H101.307C101.405 103.508 101.542 103.314 101.716 103.08C101.894 102.841 102.148 102.629 102.477 102.443C102.811 102.254 103.261 102.159 103.83 102.159C104.564 102.159 105.212 102.343 105.773 102.71C106.333 103.078 106.771 103.598 107.085 104.273C107.4 104.947 107.557 105.742 107.557 106.659C107.557 107.583 107.4 108.384 107.085 109.062C106.771 109.737 106.335 110.259 105.778 110.631C105.222 110.998 104.58 111.182 103.852 111.182C103.292 111.182 102.843 111.089 102.506 110.903C102.169 110.714 101.909 110.5 101.727 110.261C101.545 110.019 101.405 109.818 101.307 109.659H101.193V114.273H99.8523ZM101.17 106.636C101.17 107.295 101.267 107.877 101.46 108.381C101.653 108.881 101.936 109.273 102.307 109.557C102.678 109.837 103.133 109.977 103.67 109.977C104.231 109.977 104.699 109.83 105.074 109.534C105.453 109.235 105.737 108.833 105.926 108.33C106.119 107.822 106.216 107.258 106.216 106.636C106.216 106.023 106.121 105.47 105.932 104.977C105.746 104.481 105.464 104.089 105.085 103.801C104.71 103.509 104.239 103.364 103.67 103.364C103.125 103.364 102.667 103.502 102.295 103.778C101.924 104.051 101.644 104.434 101.455 104.926C101.265 105.415 101.17 105.985 101.17 106.636Z" fill="#686868"/>
<path d="M117.989 102.273V103.409H113.284V102.273H117.989ZM114.693 111V101.068C114.693 100.568 114.811 100.152 115.045 99.8182C115.28 99.4848 115.585 99.2348 115.96 99.0682C116.335 98.9015 116.731 98.8182 117.148 98.8182C117.477 98.8182 117.746 98.8447 117.955 98.8977C118.163 98.9508 118.318 99 118.42 99.0455L118.034 100.205C117.966 100.182 117.871 100.153 117.75 100.119C117.633 100.085 117.477 100.068 117.284 100.068C116.841 100.068 116.521 100.18 116.324 100.403C116.131 100.627 116.034 100.955 116.034 101.386V111H114.693ZM119.868 111V102.273H121.209V111H119.868ZM120.55 100.818C120.288 100.818 120.063 100.729 119.874 100.551C119.688 100.373 119.595 100.159 119.595 99.9091C119.595 99.6591 119.688 99.4451 119.874 99.267C120.063 99.089 120.288 99 120.55 99C120.811 99 121.035 99.089 121.22 99.267C121.41 99.4451 121.504 99.6591 121.504 99.9091C121.504 100.159 121.41 100.373 121.22 100.551C121.035 100.729 120.811 100.818 120.55 100.818ZM125.006 99.3636V111H123.665V99.3636H125.006ZM131.121 111.182C130.28 111.182 129.554 110.996 128.945 110.625C128.339 110.25 127.871 109.727 127.541 109.057C127.215 108.383 127.053 107.598 127.053 106.705C127.053 105.811 127.215 105.023 127.541 104.341C127.871 103.655 128.329 103.121 128.916 102.739C129.507 102.352 130.196 102.159 130.984 102.159C131.439 102.159 131.888 102.235 132.331 102.386C132.774 102.538 133.178 102.784 133.541 103.125C133.905 103.462 134.195 103.909 134.411 104.466C134.626 105.023 134.734 105.708 134.734 106.523V107.091H128.007V105.932H133.371C133.371 105.439 133.272 105 133.075 104.614C132.882 104.227 132.606 103.922 132.246 103.699C131.89 103.475 131.469 103.364 130.984 103.364C130.45 103.364 129.988 103.496 129.598 103.761C129.212 104.023 128.914 104.364 128.706 104.784C128.498 105.205 128.393 105.655 128.393 106.136V106.909C128.393 107.568 128.507 108.127 128.734 108.585C128.965 109.04 129.286 109.386 129.695 109.625C130.104 109.86 130.579 109.977 131.121 109.977C131.473 109.977 131.791 109.928 132.075 109.83C132.363 109.727 132.611 109.576 132.82 109.375C133.028 109.17 133.189 108.917 133.303 108.614L134.598 108.977C134.462 109.417 134.232 109.803 133.911 110.136C133.589 110.466 133.191 110.723 132.717 110.909C132.244 111.091 131.712 111.182 131.121 111.182Z" fill="#E82567"/>
</svg>
